STARTFONT 2.1
FONT -IBM-CGA-Normal-R-Condensed--16-120-96-96-C-80-ISO10646-1
SIZE 12 96 96
FONTBOUNDINGBOX 8 16 0 -2
COMMENT "Generated by fontforge, http://fontforge.sourceforge.net"
STARTPROPERTIES 34
FOUNDRY "IBM"
FAMILY_NAME "CGA 8x16"
WEIGHT_NAME "Normal"
SLANT "R"
SETWIDTH_NAME "Condensed"
ADD_STYLE_NAME ""
PIXEL_SIZE 16
POINT_SIZE 120
RESOLUTION_X 96
RESOLUTION_Y 96
SPACING "C"
AVERAGE_WIDTH 80
CHARSET_REGISTRY "ISO10646"
CHARSET_ENCODING "1"
FONTNAME_REGISTRY ""
CHARSET_COLLECTIONS "ASCII ISOLatin1Encoding ISO8859-2 ISO8859-5 ISO8859-7 ISO8859-9 ISO8859-8 ISO8859-4 ISO10646-1"
FONT_NAME "IBMCGA8x16"
FACE_NAME "IBM CGA 8x16"
COPYRIGHT "BDF conversion (c) 2016 farsil, license: CC BY-SA 4.0"
FONT_VERSION "001.000"
FONT_ASCENT 14
FONT_DESCENT 2
UNDERLINE_POSITION -2
UNDERLINE_THICKNESS 1
X_HEIGHT 10
CAP_HEIGHT 14
RAW_ASCENT 875
RAW_DESCENT 125
NORM_SPACE 8
RELATIVE_WEIGHT 50
RELATIVE_SETWIDTH 30
FIGURE_WIDTH 8
AVG_LOWERCASE_WIDTH 80
AVG_UPPERCASE_WIDTH 80
ENDPROPERTIES
CHARS 96
STARTCHAR space
ENCODING 32
SWIDTH 500 0
DWIDTH 8 0
BBX 1 1 0 0
BITMAP
00
ENDCHAR
STARTCHAR exclam
ENCODING 33
SWIDTH 500 0
DWIDTH 8 0
BBX 4 14 1 0
BITMAP
60
60
F0
F0
F0
F0
60
60
60
60
00
00
60
60
ENDCHAR
STARTCHAR quotedbl
ENCODING 34
SWIDTH 500 0
DWIDTH 8 0
BBX 5 6 1 8
BITMAP
D8
D8
D8
D8
D8
D8
ENDCHAR
STARTCHAR numbersign
ENCODING 35
SWIDTH 500 0
DWIDTH 8 0
BBX 7 14 0 0
BITMAP
6C
6C
6C
6C
FE
FE
6C
6C
FE
FE
6C
6C
6C
6C
ENDCHAR
STARTCHAR dollar
ENCODING 36
SWIDTH 500 0
DWIDTH 8 0
BBX 6 14 0 0
BITMAP
30
30
7C
7C
C0
C0
78
78
0C
0C
F8
F8
30
30
ENDCHAR
STARTCHAR percent
ENCODING 37
SWIDTH 500 0
DWIDTH 8 0
BBX 7 12 0 0
BITMAP
C6
C6
CC
CC
18
18
30
30
66
66
C6
C6
ENDCHAR
STARTCHAR ampersand
ENCODING 38
SWIDTH 500 0
DWIDTH 8 0
BBX 7 14 0 0
BITMAP
38
38
6C
6C
38
38
76
76
DC
DC
CC
CC
76
76
ENDCHAR
STARTCHAR quotesingle
ENCODING 39
SWIDTH 500 0
DWIDTH 8 0
BBX 3 6 0 8
BITMAP
60
60
60
60
C0
C0
ENDCHAR
STARTCHAR parenleft
ENCODING 40
SWIDTH 500 0
DWIDTH 8 0
BBX 4 14 1 0
BITMAP
30
30
60
60
C0
C0
C0
C0
C0
C0
60
60
30
30
ENDCHAR
STARTCHAR parenright
ENCODING 41
SWIDTH 500 0
DWIDTH 8 0
BBX 4 14 1 0
BITMAP
C0
C0
60
60
30
30
30
30
30
30
60
60
C0
C0
ENDCHAR
STARTCHAR asterisk
ENCODING 42
SWIDTH 500 0
DWIDTH 8 0
BBX 8 10 0 2
BITMAP
66
66
3C
3C
FF
FF
3C
3C
66
66
ENDCHAR
STARTCHAR plus
ENCODING 43
SWIDTH 500 0
DWIDTH 8 0
BBX 6 10 0 2
BITMAP
30
30
30
30
FC
FC
30
30
30
30
ENDCHAR
STARTCHAR comma
ENCODING 44
SWIDTH 500 0
DWIDTH 8 0
BBX 3 6 1 -2
BITMAP
60
60
60
60
C0
C0
ENDCHAR
STARTCHAR hyphen
ENCODING 45
SWIDTH 500 0
DWIDTH 8 0
BBX 6 2 0 6
BITMAP
FC
FC
ENDCHAR
STARTCHAR period
ENCODING 46
SWIDTH 500 0
DWIDTH 8 0
BBX 2 4 2 0
BITMAP
C0
C0
C0
C0
ENDCHAR
STARTCHAR slash
ENCODING 47
SWIDTH 500 0
DWIDTH 8 0
BBX 7 14 0 0
BITMAP
06
06
0C
0C
18
18
30
30
60
60
C0
C0
80
80
ENDCHAR
STARTCHAR zero
ENCODING 48
SWIDTH 500 0
DWIDTH 8 0
BBX 7 14 0 0
BITMAP
7C
7C
C6
C6
CE
CE
DE
DE
F6
F6
E6
E6
7C
7C
ENDCHAR
STARTCHAR one
ENCODING 49
SWIDTH 500 0
DWIDTH 8 0
BBX 6 14 0 0
BITMAP
30
30
70
70
30
30
30
30
30
30
30
30
FC
FC
ENDCHAR
STARTCHAR two
ENCODING 50
SWIDTH 500 0
DWIDTH 8 0
BBX 6 14 0 0
BITMAP
78
78
CC
CC
0C
0C
38
38
60
60
C4
C4
FC
FC
ENDCHAR
STARTCHAR three
ENCODING 51
SWIDTH 500 0
DWIDTH 8 0
BBX 6 14 0 0
BITMAP
78
78
CC
CC
0C
0C
38
38
0C
0C
CC
CC
78
78
ENDCHAR
STARTCHAR four
ENCODING 52
SWIDTH 500 0
DWIDTH 8 0
BBX 7 14 0 0
BITMAP
1C
1C
3C
3C
6C
6C
CC
CC
FE
FE
0C
0C
1E
1E
ENDCHAR
STARTCHAR five
ENCODING 53
SWIDTH 500 0
DWIDTH 8 0
BBX 6 14 0 0
BITMAP
FC
FC
C0
C0
F8
F8
0C
0C
0C
0C
CC
CC
78
78
ENDCHAR
STARTCHAR six
ENCODING 54
SWIDTH 500 0
DWIDTH 8 0
BBX 6 14 0 0
BITMAP
38
38
60
60
C0
C0
F8
F8
CC
CC
CC
CC
78
78
ENDCHAR
STARTCHAR seven
ENCODING 55
SWIDTH 500 0
DWIDTH 8 0
BBX 6 14 0 0
BITMAP
FC
FC
CC
CC
0C
0C
18
18
30
30
30
30
30
30
ENDCHAR
STARTCHAR eight
ENCODING 56
SWIDTH 500 0
DWIDTH 8 0
BBX 6 14 0 0
BITMAP
78
78
CC
CC
CC
CC
78
78
CC
CC
CC
CC
78
78
ENDCHAR
STARTCHAR nine
ENCODING 57
SWIDTH 500 0
DWIDTH 8 0
BBX 6 14 0 0
BITMAP
78
78
CC
CC
CC
CC
7C
7C
0C
0C
18
18
70
70
ENDCHAR
STARTCHAR colon
ENCODING 58
SWIDTH 500 0
DWIDTH 8 0
BBX 2 12 2 0
BITMAP
C0
C0
C0
C0
00
00
00
00
C0
C0
C0
C0
ENDCHAR
STARTCHAR semicolon
ENCODING 59
SWIDTH 500 0
DWIDTH 8 0
BBX 3 12 1 0
BITMAP
60
60
60
60
00
00
60
60
60
60
C0
C0
ENDCHAR
STARTCHAR less
ENCODING 60
SWIDTH 500 0
DWIDTH 8 0
BBX 5 14 0 0
BITMAP
18
18
30
30
60
60
C0
C0
60
60
30
30
18
18
ENDCHAR
STARTCHAR equal
ENCODING 61
SWIDTH 500 0
DWIDTH 8 0
BBX 6 8 0 2
BITMAP
FC
FC
00
00
00
00
FC
FC
ENDCHAR
STARTCHAR greater
ENCODING 62
SWIDTH 500 0
DWIDTH 8 0
BBX 5 14 1 0
BITMAP
C0
C0
60
60
30
30
18
18
30
30
60
60
C0
C0
ENDCHAR
STARTCHAR question
ENCODING 63
SWIDTH 500 0
DWIDTH 8 0
BBX 6 14 0 0
BITMAP
78
78
CC
CC
0C
0C
18
18
30
30
00
00
30
30
ENDCHAR
STARTCHAR at
ENCODING 64
SWIDTH 500 0
DWIDTH 8 0
BBX 7 14 0 0
BITMAP
7C
7C
C6
C6
DE
DE
DE
DE
DE
DE
C0
C0
78
78
ENDCHAR
STARTCHAR A
ENCODING 65
SWIDTH 500 0
DWIDTH 8 0
BBX 6 14 0 0
BITMAP
30
30
78
78
CC
CC
CC
CC
FC
FC
CC
CC
CC
CC
ENDCHAR
STARTCHAR B
ENCODING 66
SWIDTH 500 0
DWIDTH 8 0
BBX 7 14 0 0
BITMAP
FC
FC
66
66
66
66
7C
7C
66
66
66
66
FC
FC
ENDCHAR
STARTCHAR C
ENCODING 67
SWIDTH 500 0
DWIDTH 8 0
BBX 7 14 0 0
BITMAP
3C
3C
66
66
C0
C0
C0
C0
C0
C0
66
66
3C
3C
ENDCHAR
STARTCHAR D
ENCODING 68
SWIDTH 500 0
DWIDTH 8 0
BBX 7 14 0 0
BITMAP
F8
F8
6C
6C
66
66
66
66
66
66
6C
6C
F8
F8
ENDCHAR
STARTCHAR E
ENCODING 69
SWIDTH 500 0
DWIDTH 8 0
BBX 7 14 0 0
BITMAP
FE
FE
62
62
68
68
78
78
68
68
62
62
FE
FE
ENDCHAR
STARTCHAR F
ENCODING 70
SWIDTH 500 0
DWIDTH 8 0
BBX 7 14 0 0
BITMAP
FE
FE
62
62
68
68
78
78
68
68
60
60
F0
F0
ENDCHAR
STARTCHAR G
ENCODING 71
SWIDTH 500 0
DWIDTH 8 0
BBX 7 14 0 0
BITMAP
3C
3C
66
66
C0
C0
C0
C0
CE
CE
66
66
3E
3E
ENDCHAR
STARTCHAR H
ENCODING 72
SWIDTH 500 0
DWIDTH 8 0
BBX 6 14 0 0
BITMAP
CC
CC
CC
CC
CC
CC
FC
FC
CC
CC
CC
CC
CC
CC
ENDCHAR
STARTCHAR I
ENCODING 73
SWIDTH 500 0
DWIDTH 8 0
BBX 4 14 1 0
BITMAP
F0
F0
60
60
60
60
60
60
60
60
60
60
F0
F0
ENDCHAR
STARTCHAR J
ENCODING 74
SWIDTH 500 0
DWIDTH 8 0
BBX 7 14 0 0
BITMAP
1E
1E
0C
0C
0C
0C
0C
0C
CC
CC
CC
CC
78
78
ENDCHAR
STARTCHAR K
ENCODING 75
SWIDTH 500 0
DWIDTH 8 0
BBX 7 14 0 0
BITMAP
E6
E6
66
66
6C
6C
78
78
6C
6C
66
66
E6
E6
ENDCHAR
STARTCHAR L
ENCODING 76
SWIDTH 500 0
DWIDTH 8 0
BBX 7 14 0 0
BITMAP
F0
F0
60
60
60
60
60
60
62
62
66
66
FE
FE
ENDCHAR
STARTCHAR M
ENCODING 77
SWIDTH 500 0
DWIDTH 8 0
BBX 7 14 0 0
BITMAP
C6
C6
EE
EE
FE
FE
FE
FE
D6
D6
C6
C6
C6
C6
ENDCHAR
STARTCHAR N
ENCODING 78
SWIDTH 500 0
DWIDTH 8 0
BBX 7 14 0 0
BITMAP
C6
C6
E6
E6
F6
F6
DE
DE
CE
CE
C6
C6
C6
C6
ENDCHAR
STARTCHAR O
ENCODING 79
SWIDTH 500 0
DWIDTH 8 0
BBX 7 14 0 0
BITMAP
38
38
6C
6C
C6
C6
C6
C6
C6
C6
6C
6C
38
38
ENDCHAR
STARTCHAR P
ENCODING 80
SWIDTH 500 0
DWIDTH 8 0
BBX 7 14 0 0
BITMAP
FC
FC
66
66
66
66
7C
7C
60
60
60
60
F0
F0
ENDCHAR
STARTCHAR Q
ENCODING 81
SWIDTH 500 0
DWIDTH 8 0
BBX 6 14 0 0
BITMAP
78
78
CC
CC
CC
CC
CC
CC
DC
DC
78
78
1C
1C
ENDCHAR
STARTCHAR R
ENCODING 82
SWIDTH 500 0
DWIDTH 8 0
BBX 7 14 0 0
BITMAP
FC
FC
66
66
66
66
7C
7C
6C
6C
66
66
E6
E6
ENDCHAR
STARTCHAR S
ENCODING 83
SWIDTH 500 0
DWIDTH 8 0
BBX 6 14 0 0
BITMAP
78
78
CC
CC
60
60
30
30
18
18
CC
CC
78
78
ENDCHAR
STARTCHAR T
ENCODING 84
SWIDTH 500 0
DWIDTH 8 0
BBX 6 14 0 0
BITMAP
FC
FC
B4
B4
30
30
30
30
30
30
30
30
78
78
ENDCHAR
STARTCHAR U
ENCODING 85
SWIDTH 500 0
DWIDTH 8 0
BBX 6 14 0 0
BITMAP
CC
CC
CC
CC
CC
CC
CC
CC
CC
CC
CC
CC
FC
FC
ENDCHAR
STARTCHAR V
ENCODING 86
SWIDTH 500 0
DWIDTH 8 0
BBX 6 14 0 0
BITMAP
CC
CC
CC
CC
CC
CC
CC
CC
CC
CC
78
78
30
30
ENDCHAR
STARTCHAR W
ENCODING 87
SWIDTH 500 0
DWIDTH 8 0
BBX 7 14 0 0
BITMAP
C6
C6
C6
C6
C6
C6
D6
D6
FE
FE
EE
EE
C6
C6
ENDCHAR
STARTCHAR X
ENCODING 88
SWIDTH 500 0
DWIDTH 8 0
BBX 7 14 0 0
BITMAP
C6
C6
C6
C6
6C
6C
38
38
38
38
6C
6C
C6
C6
ENDCHAR
STARTCHAR Y
ENCODING 89
SWIDTH 500 0
DWIDTH 8 0
BBX 6 14 0 0
BITMAP
CC
CC
CC
CC
CC
CC
78
78
30
30
30
30
78
78
ENDCHAR
STARTCHAR Z
ENCODING 90
SWIDTH 500 0
DWIDTH 8 0
BBX 7 14 0 0
BITMAP
FE
FE
C6
C6
8C
8C
18
18
32
32
66
66
FE
FE
ENDCHAR
STARTCHAR bracketleft
ENCODING 91
SWIDTH 500 0
DWIDTH 8 0
BBX 4 14 1 0
BITMAP
F0
F0
C0
C0
C0
C0
C0
C0
C0
C0
C0
C0
F0
F0
ENDCHAR
STARTCHAR backslash
ENCODING 92
SWIDTH 500 0
DWIDTH 8 0
BBX 7 14 0 0
BITMAP
C0
C0
60
60
30
30
18
18
0C
0C
06
06
02
02
ENDCHAR
STARTCHAR bracketright
ENCODING 93
SWIDTH 500 0
DWIDTH 8 0
BBX 4 14 1 0
BITMAP
F0
F0
30
30
30
30
30
30
30
30
30
30
F0
F0
ENDCHAR
STARTCHAR asciicircum
ENCODING 94
SWIDTH 500 0
DWIDTH 8 0
BBX 7 8 0 6
BITMAP
10
10
38
38
6C
6C
C6
C6
ENDCHAR
STARTCHAR underscore
ENCODING 95
SWIDTH 500 0
DWIDTH 8 0
BBX 8 2 0 -2
BITMAP
FF
FF
ENDCHAR
STARTCHAR grave
ENCODING 96
SWIDTH 500 0
DWIDTH 8 0
BBX 3 6 2 8
BITMAP
C0
C0
C0
C0
60
60
ENDCHAR
STARTCHAR a
ENCODING 97
SWIDTH 500 0
DWIDTH 8 0
BBX 7 10 0 0
BITMAP
78
78
0C
0C
7C
7C
CC
CC
76
76
ENDCHAR
STARTCHAR b
ENCODING 98
SWIDTH 500 0
DWIDTH 8 0
BBX 7 14 0 0
BITMAP
E0
E0
60
60
60
60
7C
7C
66
66
66
66
DC
DC
ENDCHAR
STARTCHAR c
ENCODING 99
SWIDTH 500 0
DWIDTH 8 0
BBX 6 10 0 0
BITMAP
78
78
CC
CC
C0
C0
CC
CC
78
78
ENDCHAR
STARTCHAR d
ENCODING 100
SWIDTH 500 0
DWIDTH 8 0
BBX 7 14 0 0
BITMAP
1C
1C
0C
0C
0C
0C
7C
7C
CC
CC
CC
CC
76
76
ENDCHAR
STARTCHAR e
ENCODING 101
SWIDTH 500 0
DWIDTH 8 0
BBX 6 10 0 0
BITMAP
78
78
CC
CC
FC
FC
C0
C0
78
78
ENDCHAR
STARTCHAR f
ENCODING 102
SWIDTH 500 0
DWIDTH 8 0
BBX 6 14 0 0
BITMAP
38
38
6C
6C
60
60
F0
F0
60
60
60
60
F0
F0
ENDCHAR
STARTCHAR g
ENCODING 103
SWIDTH 500 0
DWIDTH 8 0
BBX 7 12 0 -2
BITMAP
76
76
CC
CC
CC
CC
7C
7C
0C
0C
F8
F8
ENDCHAR
STARTCHAR h
ENCODING 104
SWIDTH 500 0
DWIDTH 8 0
BBX 7 14 0 0
BITMAP
E0
E0
60
60
6C
6C
76
76
66
66
66
66
E6
E6
ENDCHAR
STARTCHAR i
ENCODING 105
SWIDTH 500 0
DWIDTH 8 0
BBX 4 14 1 0
BITMAP
60
60
00
00
E0
E0
60
60
60
60
60
60
F0
F0
ENDCHAR
STARTCHAR j
ENCODING 106
SWIDTH 500 0
DWIDTH 8 0
BBX 6 16 0 -2
BITMAP
0C
0C
00
00
0C
0C
0C
0C
0C
0C
CC
CC
CC
CC
78
78
ENDCHAR
STARTCHAR k
ENCODING 107
SWIDTH 500 0
DWIDTH 8 0
BBX 7 14 0 0
BITMAP
E0
E0
60
60
66
66
6C
6C
78
78
6C
6C
E6
E6
ENDCHAR
STARTCHAR l
ENCODING 108
SWIDTH 500 0
DWIDTH 8 0
BBX 4 14 1 0
BITMAP
E0
E0
60
60
60
60
60
60
60
60
60
60
F0
F0
ENDCHAR
STARTCHAR m
ENCODING 109
SWIDTH 500 0
DWIDTH 8 0
BBX 7 10 0 0
BITMAP
CC
CC
FE
FE
FE
FE
D6
D6
C6
C6
ENDCHAR
STARTCHAR n
ENCODING 110
SWIDTH 500 0
DWIDTH 8 0
BBX 6 10 0 0
BITMAP
F8
F8
CC
CC
CC
CC
CC
CC
CC
CC
ENDCHAR
STARTCHAR o
ENCODING 111
SWIDTH 500 0
DWIDTH 8 0
BBX 6 10 0 0
BITMAP
78
78
CC
CC
CC
CC
CC
CC
78
78
ENDCHAR
STARTCHAR p
ENCODING 112
SWIDTH 500 0
DWIDTH 8 0
BBX 7 12 0 -2
BITMAP
DC
DC
66
66
66
66
7C
7C
60
60
F0
F0
ENDCHAR
STARTCHAR q
ENCODING 113
SWIDTH 500 0
DWIDTH 8 0
BBX 7 12 0 -2
BITMAP
76
76
CC
CC
CC
CC
7C
7C
0C
0C
1E
1E
ENDCHAR
STARTCHAR r
ENCODING 114
SWIDTH 500 0
DWIDTH 8 0
BBX 7 10 0 0
BITMAP
DC
DC
76
76
66
66
60
60
F0
F0
ENDCHAR
STARTCHAR s
ENCODING 115
SWIDTH 500 0
DWIDTH 8 0
BBX 6 10 0 0
BITMAP
7C
7C
C0
C0
78
78
0C
0C
F8
F8
ENDCHAR
STARTCHAR t
ENCODING 116
SWIDTH 500 0
DWIDTH 8 0
BBX 5 14 1 0
BITMAP
20
20
60
60
F8
F8
60
60
60
60
68
68
30
30
ENDCHAR
STARTCHAR u
ENCODING 117
SWIDTH 500 0
DWIDTH 8 0
BBX 7 10 0 0
BITMAP
CC
CC
CC
CC
CC
CC
CC
CC
76
76
ENDCHAR
STARTCHAR v
ENCODING 118
SWIDTH 500 0
DWIDTH 8 0
BBX 6 10 0 0
BITMAP
CC
CC
CC
CC
CC
CC
78
78
30
30
ENDCHAR
STARTCHAR w
ENCODING 119
SWIDTH 500 0
DWIDTH 8 0
BBX 7 10 0 0
BITMAP
C6
C6
D6
D6
FE
FE
FE
FE
6C
6C
ENDCHAR
STARTCHAR x
ENCODING 120
SWIDTH 500 0
DWIDTH 8 0
BBX 7 10 0 0
BITMAP
C6
C6
6C
6C
38
38
6C
6C
C6
C6
ENDCHAR
STARTCHAR y
ENCODING 121
SWIDTH 500 0
DWIDTH 8 0
BBX 6 12 0 -2
BITMAP
CC
CC
CC
CC
CC
CC
7C
7C
0C
0C
F8
F8
ENDCHAR
STARTCHAR z
ENCODING 122
SWIDTH 500 0
DWIDTH 8 0
BBX 6 10 0 0
BITMAP
FC
FC
98
98
30
30
64
64
FC
FC
ENDCHAR
STARTCHAR braceleft
ENCODING 123
SWIDTH 500 0
DWIDTH 8 0
BBX 6 14 0 0
BITMAP
1C
1C
30
30
30
30
E0
E0
30
30
30
30
1C
1C
ENDCHAR
STARTCHAR bar
ENCODING 124
SWIDTH 500 0
DWIDTH 8 0
BBX 2 14 3 0
BITMAP
C0
C0
C0
C0
C0
C0
00
00
C0
C0
C0
C0
C0
C0
ENDCHAR
STARTCHAR braceright
ENCODING 125
SWIDTH 500 0
DWIDTH 8 0
BBX 6 14 0 0
BITMAP
E0
E0
30
30
30
30
1C
1C
30
30
30
30
E0
E0
ENDCHAR
STARTCHAR asciitilde
ENCODING 126
SWIDTH 500 0
DWIDTH 8 0
BBX 7 4 0 10
BITMAP
76
76
DC
DC
ENDCHAR
STARTCHAR uni007F
ENCODING 127
SWIDTH 500 0
DWIDTH 8 0
BBX 7 12 0 0
BITMAP
10
10
38
38
6C
6C
C6
C6
C6
C6
FE
FE
ENDCHAR
ENDFONT
